<svg width="39" height="34" viewBox="0 0 39 34" fill="none" xmlns="http://www.w3.org/2000/svg">
<g clip-path="url(#clip0_1453_2)">
<path d="M29 10.2C28.3 9.80002 27.4 9.80002 26.6 10.2L21 13.5L17.2 15.6L11.7 18.9C11 19.3 10.1 19.3 9.3 18.9L5 16.3C4.3 15.9 3.8 15.1 3.8 14.2V9.20002C3.8 8.40002 4.2 7.60002 5 7.10002L9.3 4.60002C10 4.20002 10.9 4.20002 11.7 4.60002L16 7.20002C16.7 7.60002 17.2 8.40003 17.2 9.30002V12.6L21 10.4V7.00002C21 6.20002 20.6 5.40002 19.8 4.90002L11.8 0.200024C11.1 -0.199976 10.2 -0.199976 9.4 0.200024L1.2 5.00002C0.4 5.40002 0 6.20002 0 7.00002V16.4C0 17.2 0.4 18 1.2 18.5L9.3 23.2C10 23.6 10.9 23.6 11.7 23.2L17.2 20L21 17.8L26.5 14.6C27.2 14.2 28.1 14.2 28.9 14.6L33.2 17.1C33.9 17.5 34.4 18.3 34.4 19.2V24.2C34.4 25 34 25.8 33.2 26.3L29 28.8C28.3 29.2 27.4 29.2 26.6 28.8L22.3 26.3C21.6 25.9 21.1 25.1 21.1 24.2V21L17.3 23.2V26.5C17.3 27.3 17.7 28.1 18.5 28.6L26.6 33.3C27.3 33.7 28.2 33.7 29 33.3L37.1 28.6C37.8 28.2 38.3 27.4 38.3 26.5V17C38.3 16.2 37.9 15.4 37.1 14.9L29 10.2Z" fill="#E547DF"/>
</g>
<defs>
<clipPath id="clip0_1453_2">
<rect width="38.4" height="33.5" fill="white"/>
</clipPath>
</defs>
</svg>
